<svg width="640" height="480" viewBox="0 0 640 480" fill="none" xmlns="http://www.w3.org/2000/svg" role="img" aria-labelledby="heroTitle heroDesc">
  <title id="heroTitle">Illustration of Certitude Professionals crafting digital solutions</title>
  <desc id="heroDesc">Stylized workspace scene showing a laptop with the Certitude Professionals logo, surrounded by interface cards, data charts, and glowing connectors suggesting collaboration and reliable delivery.</desc>
  <rect width="640" height="480" rx="48" fill="#030712"/>
  <g filter="url(#glowBackdrop)">
    <ellipse cx="320" cy="252" rx="260" ry="180" fill="url(#backdropGradient)"/>
  </g>
  <g filter="url(#orbGlow)">
    <circle cx="168" cy="148" r="48" fill="url(#orbBlue)" opacity="0.7"/>
    <circle cx="480" cy="128" r="36" fill="url(#orbCyan)" opacity="0.65"/>
    <circle cx="520" cy="292" r="42" fill="url(#orbIndigo)" opacity="0.55"/>
  </g>
  <g filter="url(#laptopShadow)">
    <rect x="150" y="148" width="340" height="220" rx="24" fill="#0F172A"/>
  </g>
  <rect x="170" y="166" width="300" height="176" rx="16" fill="#111C37"/>
  <rect x="170" y="166" width="300" height="24" rx="16" fill="#18294F"/>
  <circle cx="190" cy="178" r="5" fill="#38BDF8"/>
  <circle cx="208" cy="178" r="5" fill="#60A5FA"/>
  <circle cx="226" cy="178" r="5" fill="#93C5FD"/>
  <rect x="192" y="210" width="256" height="122" rx="12" fill="url(#screenGradient)"/>
  <g filter="url(#screenGlow)">
    <rect x="214" y="232" width="212" height="78" rx="14" fill="rgba(15, 23, 42, 0.45)"/>
    <path d="M236 260c0-28 24-50 54-50 30 0 54 22 54 50s-24 50-54 50c-30 0-54-22-54-50z" fill="url(#logoGlow)"/>
    <path d="M290 228c-22.091 0-40 17.909-40 40 0 22.091 17.909 40 40 40 22.091 0 40-17.909 40-40 0-22.091-17.909-40-40-40zm23.13 54.4l-21.948-21.948-14.312 14.311-9.796-9.795 24.108-24.108 31.744 31.744-9.796 9.796z" fill="#F8FAFC"/>
  </g>
  <path d="M186 372h308l-18 24H204l-18-24z" fill="#0B1224"/>
  <rect x="220" y="344" width="204" height="14" rx="7" fill="#1F2B49"/>
  <g filter="url(#cardShadow)">
    <rect x="108" y="244" width="124" height="94" rx="18" fill="#0C162C"/>
  </g>
  <rect x="124" y="262" width="92" height="58" rx="14" fill="#13244A"/>
  <rect x="140" y="282" width="60" height="10" rx="5" fill="#60A5FA"/>
  <rect x="140" y="300" width="44" height="10" rx="5" fill="#38BDF8" opacity="0.85"/>
  <circle cx="154" cy="278" r="10" fill="#1E3A8A"/>
  <path d="M150 276l4 4 8-8" stroke="#93C5FD" stroke-width="2" stroke-linecap="round" stroke-linejoin="round"/>
  <g filter="url(#cardShadow)">
    <rect x="440" y="210" width="112" height="86" rx="18" fill="#0C162C"/>
  </g>
  <rect x="454" y="226" width="84" height="54" rx="14" fill="#13244A"/>
  <rect x="470" y="240" width="52" height="10" rx="5" fill="#38BDF8"/>
  <rect x="470" y="258" width="40" height="10" rx="5" fill="#60A5FA" opacity="0.8"/>
  <path d="M488 252l10-18 10 18h-20z" fill="#1E3A8A" stroke="#93C5FD" stroke-width="2" stroke-linejoin="round"/>
  <g filter="url(#pathGlow)">
    <path d="M164 208c18-42 64-72 120-72 43.5 0 82 18.5 106 47" stroke="url(#connectorGradient)" stroke-width="6" stroke-linecap="round" stroke-dasharray="18 24"/>
  </g>
  <g filter="url(#pathGlow)">
    <path d="M326 304c26 12 52.5 16 80 6 19.866-7.26 37.594-21.282 52-40" stroke="url(#connectorGradient)" stroke-width="6" stroke-linecap="round" stroke-dasharray="18 24"/>
  </g>
  <defs>
    <linearGradient id="backdropGradient" x1="320" y1="72" x2="320" y2="432" gradientUnits="userSpaceOnUse">
      <stop stop-color="#122C5C"/>
      <stop offset="1" stop-color="#041023" stop-opacity="0.2"/>
    </linearGradient>
    <radialGradient id="orbBlue" cx="0" cy="0" r="1" gradientUnits="userSpaceOnUse" gradientTransform="translate(168 148) rotate(90) scale(48)">
      <stop stop-color="#2563EB"/>
      <stop offset="1" stop-color="#0F172A" stop-opacity="0"/>
    </radialGradient>
    <radialGradient id="orbCyan" cx="0" cy="0" r="1" gradientUnits="userSpaceOnUse" gradientTransform="translate(480 128) rotate(90) scale(36)">
      <stop stop-color="#22D3EE"/>
      <stop offset="1" stop-color="#0F172A" stop-opacity="0"/>
    </radialGradient>
    <radialGradient id="orbIndigo" cx="0" cy="0" r="1" gradientUnits="userSpaceOnUse" gradientTransform="translate(520 292) rotate(90) scale(42)">
      <stop stop-color="#4C1D95"/>
      <stop offset="1" stop-color="#0F172A" stop-opacity="0"/>
    </radialGradient>
    <linearGradient id="screenGradient" x1="192" y1="210" x2="448" y2="332" gradientUnits="userSpaceOnUse">
      <stop stop-color="#172A53"/>
      <stop offset="1" stop-color="#0B1326"/>
    </linearGradient>
    <radialGradient id="logoGlow" cx="0" cy="0" r="1" gradientUnits="userSpaceOnUse" gradientTransform="translate(290 278) rotate(90) scale(52)">
      <stop stop-color="#38BDF8" stop-opacity="0.95"/>
      <stop offset="1" stop-color="#1E3A8A" stop-opacity="0"/>
    </radialGradient>
    <linearGradient id="connectorGradient" x1="180" y1="148" x2="508" y2="316" gradientUnits="userSpaceOnUse">
      <stop stop-color="#38BDF8"/>
      <stop offset="1" stop-color="#6366F1"/>
    </linearGradient>
    <filter id="glowBackdrop" x="20" y="32" width="600" height="440" filterUnits="userSpaceOnUse" color-interpolation-filters="sRGB">
      <feFlood flood-opacity="0" result="BackgroundImageFix"/>
      <feBlend in="SourceGraphic" in2="BackgroundImageFix" result="shape"/>
      <feGaussianBlur stdDeviation="28" result="effect1_foregroundBlur"/>
    </filter>
    <filter id="orbGlow" x="60" y="40" width="520" height="360" filterUnits="userSpaceOnUse" color-interpolation-filters="sRGB">
      <feFlood flood-opacity="0" result="BackgroundImageFix"/>
      <feBlend in="SourceGraphic" in2="BackgroundImageFix" result="shape"/>
      <feGaussianBlur stdDeviation="12" result="effect1_foregroundBlur"/>
    </filter>
    <filter id="laptopShadow" x="130" y="128" width="380" height="260" filterUnits="userSpaceOnUse" color-interpolation-filters="sRGB">
      <feFlood flood-opacity="0" result="BackgroundImageFix"/>
      <feOffset dy="12"/>
      <feGaussianBlur stdDeviation="18"/>
      <feComposite in2="SourceAlpha" operator="in" result="shadow"/>
      <feBlend in="SourceGraphic" in2="shadow" result="shape"/>
    </filter>
    <filter id="screenGlow" x="196" y="210" width="240" height="130" filterUnits="userSpaceOnUse" color-interpolation-filters="sRGB">
      <feFlood flood-opacity="0" result="BackgroundImageFix"/>
      <feGaussianBlur stdDeviation="6" result="effect1_foregroundBlur"/>
      <feBlend in="SourceGraphic" in2="effect1_foregroundBlur" result="shape"/>
    </filter>
    <filter id="cardShadow" x="92" y="228" width="156" height="126" filterUnits="userSpaceOnUse" color-interpolation-filters="sRGB">
      <feFlood flood-opacity="0" result="BackgroundImageFix"/>
      <feOffset dy="10"/>
      <feGaussianBlur stdDeviation="12"/>
      <feComposite in2="SourceAlpha" operator="in" result="shadow"/>
      <feBlend in="SourceGraphic" in2="shadow" result="shape"/>
    </filter>
    <filter id="pathGlow" x="132" y="114" width="360" height="232" filterUnits="userSpaceOnUse" color-interpolation-filters="sRGB">
      <feFlood flood-opacity="0" result="BackgroundImageFix"/>
      <feGaussianBlur stdDeviation="6" result="effect1_foregroundBlur"/>
      <feBlend in="SourceGraphic" in2="effect1_foregroundBlur" result="shape"/>
    </filter>
  </defs>
</svg>
